<svg id="Layer_1" data-name="Layer 1" xmlns="http://www.w3.org/2000/svg" viewBox="0 0 1554 189.81"><defs><style>.cls-1{fill:#fff;}</style></defs><title>ANYSPAZE LOGO 1</title><path class="cls-1" d="M242.72,432.68l-18.38,45.87H184.82l75.07-182.42h48.55l78.64,182.42H345.59l-19.41-45.87Zm72.38-31.12c-18.69-44.56-27.68-66.69-32-80.13h-.26c-4,13.1-14.56,42-29.77,80.13Z" transform="translate(-184.82 -292.44)"/><path class="cls-1" d="M412.78,478.55V296.13h45.48C506.21,367.56,539,411,550.05,431.74h.52c-1.73-20.63-1.48-53.06-1.48-82.94V296.13h35.26V478.55h-42.7c-20.39-30.15-83-123.29-94.56-144.27h-.52C448,357.11,448,383,448,415.38v63.17Z" transform="translate(-184.82 -292.44)"/><path class="cls-1" d="M682.4,478.55V412c0-2.27-.69-3.49-2.09-5.5L604.56,296.13h45.57c19,29.44,44.41,67.16,53,83.72,9.22-16.46,34.57-54.28,53.63-83.72h41.9L722,407.9c-1,1.47-1.11,2.42-1.11,4.67v66Z" transform="translate(-184.82 -292.44)"/><path class="cls-1" d="M840.64,424.41c5.68,17.56,19.26,29.4,51.35,29.4,30.77,0,40.76-10.34,40.76-23.79,0-14.3-8.93-22.66-50.14-29.63C822,390.05,810,370.57,810,346c0-35,33.59-53.55,75.62-53.55,61.55,0,77.57,31.82,79.64,52.12H926.78c-2.94-10.11-9.55-23.61-42.34-23.61C861.7,321,849,328.38,849,342.26c0,11.95,7.49,18.58,44,25,68.2,12,79,32.8,79,58.87,0,30.79-24.28,56.13-83.44,56.13-55.11,0-80.83-24.75-86.49-57.84Z" transform="translate(-184.82 -292.44)"/><path class="cls-1" d="M1009.69,296.13h91.57c43.36,0,69.13,22.08,69.13,56.16,0,36.83-25.94,58.4-69.31,58.4h-52.9v67.86h-38.49Zm38.49,84.27h49.39c20.78,0,34.45-6.74,34.45-27.49,0-16.68-10.63-26.67-34.45-26.67h-49.39Z" transform="translate(-184.82 -292.44)"/><path class="cls-1" d="M1221.11,432.68l-18.37,45.87h-39.53l75.07-182.42h48.56l78.64,182.42H1324l-19.4-45.87Zm72.38-31.12c-18.69-44.56-27.67-66.69-32-80.13h-.26c-4,13.1-14.56,42-29.76,80.13Z" transform="translate(-184.82 -292.44)"/><path class="cls-1" d="M1383.64,450.71l115.63-124.26H1389.19V296.13h158.67V326L1434,448.23h121.73l-4.55,30.32H1383.64Z" transform="translate(-184.82 -292.44)"/><path class="cls-1" d="M1727.45,399H1623.2v48.49h115.62l-4.58,31H1584.89V296.13H1733v31H1623.2V368h104.25Z" transform="translate(-184.82 -292.44)"/></svg>