<svg id="Layer_1" enable-background="new 0 0 479.564 479.564" height="512" viewBox="0 0 479.564 479.564" width="512" xmlns="http://www.w3.org/2000/svg"><path d="m239.016 451.268c-2.588 2.242-6.61.391-6.61-3.033v-192.454c0-4.418 3.582-8 8-8h89.119c4.578 0 8.255 3.836 7.991 8.406-4.507 78.065-42.681 146.719-98.5 195.081zm-6.61-419.983v192.496c0 4.418 3.582 8 8 8h89.121c4.577 0 8.254-3.836 7.991-8.405-4.483-77.832-42.477-146.582-98.503-195.124-2.587-2.242-6.609-.391-6.609 3.033zm-16 417.921v-193.425c0-4.418-3.582-8-8-8h-88.678c-4.712 0-8.4 4.045-7.967 8.737 6.748 73.194 38.435 147.798 98.158 195.825 2.608 2.097 6.487.208 6.487-3.137zm-105.111-225.831c-.264 4.57 3.414 8.406 7.991 8.406h89.12c4.418 0 8-3.582 8-8v-192.456c0-3.424-4.022-5.275-6.609-3.033-55.824 48.361-93.991 116.878-98.502 195.083zm-16.067.787c5.211-99.29 59.187-165.942 94.472-199.265 2.88-2.72.471-7.522-3.433-6.85-99.434 17.13-178.592 101.293-186.235 205.137-.342 4.64 3.332 8.597 7.985 8.597h79.224c4.269 0 7.763-3.356 7.987-7.619zm284.54-65.112c.004-3.739-2.553-6.911-6.172-7.846-9.969-2.574-17.23-11.398-17.916-21.607-.269-3.998-3.493-7.106-7.49-7.395-20.29-1.466-29.813-26.306-15.223-40.911 5.389-5.387 11.24-10.144 17.462-14.238 4.736-3.116 4.718-10.06.04-13.263-26.517-18.155-56.371-30.3-87.88-35.735-3.902-.673-6.312 4.125-3.434 6.844 35.27 33.328 89.228 99.99 94.432 199.262.223 4.263 3.717 7.619 7.986 7.619h30.56c4.261 0 7.981 3.215 8.257 7.467.302 4.659-3.388 8.533-7.983 8.533h-30.836c-4.269 0-7.762 3.356-7.986 7.618-5.217 99.293-59.199 165.95-94.481 199.271-2.878 2.718-.471 7.517 3.431 6.845 124.174-21.384 211.697-145.221 180.687-274.051-1.368-5.682-8.22-8.152-12.736-4.442-20.223 16.615-50.745 2.165-50.718-23.971zm-292.168 88.731h-79.594c-4.65 0-8.321 3.951-7.985 8.589 7.547 104.282 85.672 187.228 184.296 204.86 3.947.706 6.337-4.199 3.38-6.907-74.145-67.898-89.112-162.41-92.125-199.207-.34-4.15-3.808-7.335-7.972-7.335zm286.376-125.47c-3.12 3.12-3.12 8.19.01 11.31 3.12 3.12 8.18 3.12 11.31 0 14.057-14.057 36.81-14.1 50.91 0 3.113 3.113 8.184 3.127 11.31 0 3.13-3.12 3.13-8.19 0-11.31-20.27-20.29-53.156-20.383-73.54 0zm103.24-29.7c-36.724-36.745-96.199-36.752-132.93 0-3.13 3.12-3.13 8.19 0 11.31 3.12 3.12 8.19 3.12 11.31 0 30.498-30.498 79.828-30.482 110.31 0 3.115 3.115 8.187 3.123 11.31 0 3.13-3.12 3.13-8.19 0-11.31zm-66.47 51.46c-8.224 0-15 6.672-15 15 0 8.335 6.753 15 15 15 10.711 0 17.928-10.867 13.87-20.74-2.264-5.405-7.572-9.26-13.87-9.26z"/></svg>