<svg id="Layer_5" enable-background="new 0 0 64 64" height="512" viewBox="0 0 64 64" width="512" xmlns="http://www.w3.org/2000/svg"><path d="m44.665 18h-3.33l.601 9h2.128z"/><path d="m39 31c0 2.206 1.794 4 4 4s4-1.794 4-4v-2h-8z"/><path d="m18 37c-3.859 0-7 3.141-7 7v.193c0 1.583.545 3.137 1.534 4.373l1.947 2.434h2.519v-4.184c-1.161-.414-2-1.514-2-2.816 0-1.654 1.346-3 3-3s3 1.346 3 3c0 1.302-.839 2.402-2 2.816v4.184h2.519l1.946-2.434c.99-1.236 1.535-2.79 1.535-4.373v-.193c0-3.859-3.141-7-7-7z"/><path d="m15 54c0 1.654 1.346 3 3 3s3-1.346 3-3v-1h-6z"/><circle cx="18" cy="44" r="1"/><path d="m43.051 7h-.102c-5.486 0-9.949 4.463-9.949 9.949 0 2.374.851 4.674 2.395 6.476l3.065 3.575h1.471l-.6-9h-1.331c-1.654 0-3-1.346-3-3s1.346-3 3-3h.129c1.574 0 2.89 1.23 2.993 2.802l.08 1.198h3.596l.08-1.199c.103-1.571 1.419-2.801 2.993-2.801h.129c1.654 0 3 1.346 3 3s-1.346 3-3 3h-1.331l-.6 9h1.471l3.065-3.575c1.544-1.802 2.395-4.102 2.395-6.476 0-5.486-4.463-9.949-9.949-9.949z"/><path d="m32 33h-28c-.552 0-1 .448-1 1v26c0 .552.448 1 1 1h28c.552 0 1-.448 1-1v-26c0-.552-.448-1-1-1zm-25 26h-2v-2h2zm0-4h-2v-2h2zm0-4h-2v-2h2zm20-6.807c0 2.036-.7 4.032-1.972 5.623l-2.028 2.535v1.649c0 2.757-2.243 5-5 5s-5-2.243-5-5v-1.649l-2.028-2.534c-1.272-1.591-1.972-3.588-1.972-5.624v-.193c0-4.963 4.037-9 9-9s9 4.037 9 9zm4 .807h-2v-2h2zm0-4h-2v-2h2zm0-4h-2v-2h2z"/><path d="m49 15c0-.552-.448-1-1-1h-.129c-.524 0-.963.41-.997.933l-.071 1.067h1.197c.552 0 1-.448 1-1z"/><path d="m60 3h-34c-.552 0-1 .448-1 1v27h7c1.654 0 3 1.346 3 3v5h25c.552 0 1-.448 1-1v-34c0-.552-.448-1-1-1zm-31 12h-2v-2h2zm0-4h-2v-2h2zm0-4h-2v-2h2zm23.123 17.726-3.123 3.644v2.63c0 3.309-2.691 6-6 6s-6-2.691-6-6v-2.63l-3.123-3.645c-1.856-2.163-2.877-4.924-2.877-7.776 0-6.589 5.36-11.949 11.949-11.949h.102c6.589 0 11.949 5.36 11.949 11.949 0 2.852-1.021 5.613-2.877 7.777zm6.877 12.274h-2v-2h2zm0-4h-2v-2h2zm0-4h-2v-2h2z"/><path d="m38.129 14h-.129c-.552 0-1 .448-1 1s.448 1 1 1h1.197l-.071-1.066c-.034-.524-.473-.934-.997-.934z"/><path d="m57 50c0 1.654-1.346 3-3 3h-18.414l6.707 6.707 1.414-1.414-3.293-3.293h13.586c2.757 0 5-2.243 5-5v-7h-2z"/><path d="m37 49h2v2h-2z"/><path d="m41 49h2v2h-2z"/><path d="m55 49v-6h-2v6h-8v2h8c1.103 0 2-.897 2-2z"/><path d="m3 20c0-1.654 1.346-3 3-3h16.414l-6.707-6.707-1.414 1.414 3.293 3.293h-11.586c-2.757 0-5 2.243-5 5v7h2z"/><path d="m19 19h2v2h-2z"/><path d="m15 19h2v2h-2z"/><path d="m5 21v6h2v-6h6v-2h-6c-1.103 0-2 .897-2 2z"/></svg>